<svg preserveAspectRatio="none" overflow="visible" style="display: block;" width="48" height="48" viewBox="0 0 48 48" fill="none" xmlns="http://www.w3.org/2000/svg">
<g id="arrow-right-circle">
<path id="arrow-right-circle_2" d="M24 2.5C12.144 2.5 2.5 12.144 2.5 24C2.5 35.856 12.144 45.5 24 45.5C35.856 45.5 45.5 35.856 45.5 24C45.5 12.144 35.856 2.5 24 2.5ZM24 42.5C13.798 42.5 5.5 34.202 5.5 24C5.5 13.798 13.798 5.5 24 5.5C34.202 5.5 42.5 13.798 42.5 24C42.5 34.202 34.202 42.5 24 42.5ZM33.3838 24.5742C33.3078 24.7582 33.1981 24.924 33.0601 25.062L27.0601 31.062C26.7681 31.354 26.384 31.502 26 31.502C25.616 31.502 25.2319 31.356 24.9399 31.062C24.3539 30.476 24.3539 29.5259 24.9399 28.9399L28.3799 25.5H16C15.172 25.5 14.5 24.828 14.5 24C14.5 23.172 15.172 22.5 16 22.5H28.3779L24.938 19.0601C24.352 18.4741 24.352 17.524 24.938 16.938C25.524 16.352 26.4741 16.352 27.0601 16.938L33.0601 22.938C33.1981 23.076 33.3078 23.2418 33.3838 23.4258C33.5358 23.7938 33.5358 24.2062 33.3838 24.5742Z" fill="#102B1C"/>
</g>
</svg>
